<?xml version="1.0" encoding="utf-8"?>
<!-- Generator: Adobe Illustrator 27.0.1, SVG Export Plug-In . SVG Version: 6.00 Build 0)  -->
<svg version="1.1" id="Layer_1" xmlns="http://www.w3.org/2000/svg" xmlns:xlink="http://www.w3.org/1999/xlink" x="0px" y="0px"
	 viewBox="0 0 480 480" style="enable-background:new 0 0 480 480;" xml:space="preserve">
<style type="text/css">
	.st0{fill:#FFC86B;}
	.st1{fill:#243047;}
	.st2{fill:#4BEAC1;}
	.st3{fill:#44D9B6;}
	.st4{fill:#38AD8E;}
	.st5{fill:#FF595B;}
	.st6{fill:#F73E48;}
	.st7{fill:#FF494B;}
	.st8{fill:#FFDA8E;}
	.st9{fill:#FFB842;}
	.st10{fill:#E03A3C;}
	.st11{fill:#74157C;}
	.st12{fill:#C221C9;}
	.st13{fill:#310A35;}
</style>
<g>
	<g>
		<g>
			<g>
				<path class="st0" d="M421.27,310.12c69.41-69.42,69.41-181.97,0-251.38c-69.41-69.42-181.95-69.42-251.37,0
					c-104.63,104.63-25.5,177.19-38.8,189.51l-27.33,27.33l100.68,100.69l27.33-27.33C251.66,328.71,312.44,418.96,421.27,310.12z"
					/>
			</g>
		</g>
		<g>
			<g>
				<path class="st0" d="M261.32,324.67c-2.01-2.01-2.47-5.21-0.92-7.75c1.82-2.97,5.7-3.91,8.67-2.1
					c15.32,9.35,39.58,11.98,64.9,7.01c23.61-4.63,43.44-15.1,50.5-26.67c1.82-2.97,5.7-3.91,8.67-2.1c2.98,1.82,3.91,5.7,2.1,8.67
					c-8.96,14.68-31.51,27.12-58.84,32.48c-28.75,5.64-55.69,2.5-73.9-8.63C262.06,325.33,261.67,325.02,261.32,324.67z"/>
			</g>
			<g>
				<path class="st0" d="M211.3,73.05c-2.05-2.05-2.48-5.33-0.84-7.87c9.29-14.47,32.12-26.39,59.57-31.12
					c28.88-4.98,55.73-1.22,73.68,10.32c2.93,1.89,3.78,5.79,1.9,8.72c-1.88,2.93-5.79,3.78-8.72,1.9
					c-15.1-9.7-39.3-12.88-64.72-8.5c-23.71,4.09-43.77,14.1-51.1,25.51c-1.88,2.93-5.79,3.78-8.72,1.9
					C211.97,73.65,211.62,73.37,211.3,73.05z"/>
			</g>
			<g>
				<path class="st0" d="M385.88,91.77c-0.63-0.63-1.14-1.4-1.46-2.3c-1.69-4.62-12.71-14.02-19.62-18.92
					c-2.84-2.01-3.52-5.95-1.5-8.8c2.01-2.84,5.95-3.52,8.79-1.51c3.4,2.41,20.54,14.91,24.19,24.89c1.19,3.27-0.49,6.9-3.76,8.09
					C390.13,94.11,387.56,93.46,385.88,91.77z"/>
			</g>
		</g>
		<g>
			<g>
				<g>
					<path class="st1" d="M199.98,380.72L99.31,280.04c-2.46-2.46-2.46-6.46,0-8.92l27.06-27.06c0.14-2.4-2.54-9.34-4.71-14.97
						c-6.06-15.73-15.23-39.5-12.69-69.43c3-35.45,22-70.9,56.47-105.37C200.2,19.51,246.42,0.37,295.58,0.37
						c49.16,0,95.38,19.15,130.14,53.91c34.76,34.77,53.91,80.99,53.91,130.15c0,49.17-19.14,95.39-53.91,130.15
						c-34.56,34.56-67.49,52.94-100.68,56.2c-28.15,2.76-50.26-6.17-66.41-12.69c-11.99-4.84-19.49-7.66-22.37-4.73l-27.36,27.37
						C206.44,383.19,202.45,383.19,199.98,380.72z M112.69,275.58l91.76,91.76l22.87-22.87c8.9-9.05,21.48-3.96,36.05,1.92
						c31.97,12.91,80.29,32.43,153.44-40.73c66.84-66.85,66.84-175.61,0-242.46c-66.84-66.85-175.6-66.85-242.44,0
						c-74.43,74.44-52.64,130.97-40.93,161.34c4.95,12.83,8.53,22.12,2.06,28.24L112.69,275.58z"/>
				</g>
			</g>
		</g>
	</g>
	<g>
		<path class="st1" d="M297.15,277.04c-1.08-5.08-3.5-10.95-7.19-17.44c-6.82-11.99-17.73-25.75-30.75-38.76
			c-12.72-12.72-26.22-23.48-38.01-30.31c-6.33-3.67-12.09-6.15-17.09-7.36c-7.83-1.9-13.36-0.56-17.04,1.44
			c-1.34,0.61-2.6,1.47-3.7,2.57l-28.41,28.41l-13.88,13.88l-0.45,0.45L3.7,366.84c-3.4,3.4-4.45,8.26-3.16,12.57l8.12,44.39
			l4.6,31.52c0.4,2.76,1.69,5.22,3.56,7.1c1.84,1.84,4.25,3.11,6.95,3.54l4.67,0.74l32.07,5.06c0.42,0.07,0.84,0.11,1.26,0.13
			l38.66,7.53c4.34,1.36,9.27,0.32,12.71-3.12l136.71-136.72l0.22-0.22l0.45-0.45l11.87-11.87l2.01-2.01l27.16-27.17
			c0.25-0.21,0.54-0.47,0.85-0.78C295.8,293.71,299.36,287.49,297.15,277.04z"/>
		<g>
			<g>
				
					<rect x="27.09" y="281.16" transform="matrix(0.7071 -0.7071 0.7071 0.7071 -205.3586 196.1249)" class="st2" width="213.92" height="129.56"/>
				<polygon class="st3" points="56.5,422.46 56.5,422.46 91.27,433.33 231.98,292.61 186.6,247.22 44.58,389.25 				"/>
				
					<rect x="-7.26" y="295.39" transform="matrix(0.7071 -0.7071 0.7071 0.7071 -191.126 161.7685)" class="st4" width="213.92" height="32.38"/>
			</g>
			<g>
				
					<rect x="187.45" y="199.24" transform="matrix(-0.7071 0.7071 -0.7071 -0.7071 557.0131 296.3365)" class="st5" width="59.36" height="128.6"/>
				
					<rect x="152.77" y="212.46" transform="matrix(-0.7071 0.7071 -0.7071 -0.7071 473.6133 261.3477)" class="st6" width="59.81" height="32.62"/>
				
					<rect x="186.99" y="230.28" transform="matrix(-0.7071 0.7071 -0.7071 -0.7071 556.2222 295.5688)" class="st7" width="59.8" height="65.41"/>
			</g>
			<g>
				<g>
					<path class="st8" d="M26.68,452.21l77.61,15.11l-11.35-32.69c-0.37-1.05-1.28-1.96-2.33-2.32l-32.47-11.14l-12.3-31.7
						c-0.38-0.98-1.23-1.82-2.21-2.18L12.69,375.7L26.68,452.21z"/>
				</g>
				<path class="st9" d="M26.68,452.21l30.54-30.14c0.57-0.56,0.7-1.49,0.33-2.43l-12.33-31.77L12.69,375.7L26.68,452.21z"/>
				<path class="st0" d="M26.68,452.21l58.34-17.16c2.24-0.66,1.4-4.19-1.21-5.08l-25.67-8.81l-9.85-25.38
					c-0.99-2.54-4.4-3.27-5.04-1.07L26.68,452.21z"/>
			</g>
			
				<ellipse transform="matrix(0.7071 -0.7071 0.7071 0.7071 -101.7518 239.0469)" class="st10" cx="237.7" cy="242.36" rx="17.81" ry="64.78"/>
			<g>
				<path class="st8" d="M182.54,297.45c25.3,25.3,51.44,40.17,58.4,33.21l0,0c0.07-0.07,0.13-0.16,0.2-0.24l0.02,0.02l12.31-12.31
					c-8.21,4.87-33.17-9.77-57.38-33.98c-25.3-25.3-40.16-51.45-33.21-58.4c0.08-0.08,0.16-0.13,0.24-0.2l-0.02-0.02l0.89-0.89
					l-0.13-0.13l-14.33,14.33l0.02,0.02c-0.08,0.07-0.17,0.13-0.24,0.2C142.37,246.01,157.24,272.15,182.54,297.45z"/>
				<path class="st0" d="M206.43,318.16l13.41-13.41c-7.57-5.57-15.7-12.55-23.75-20.6c-8.47-8.47-15.77-17.04-21.47-24.95
					l-13.45,13.45c5.69,7.87,12.94,16.38,21.36,24.8C190.64,305.55,198.82,312.57,206.43,318.16z"/>
				<path class="st9" d="M149.32,239.06c-4.64,4.67,0.5,17.94,12,33.79l13.45-13.45c-11.43-15.8-16.53-29.01-11.88-33.66
					c0.08-0.08,0.16-0.13,0.24-0.2l-0.02-0.02l0.9-0.9l-0.13-0.13l-14.33,14.33l0.02,0.02c-0.08,0.07-0.16,0.12-0.23,0.19
					L149.32,239.06z"/>
			</g>
			<g>
				<path class="st11" d="M39.11,440.01c-7.67-7.67-14.05-15.44-18.59-22.32l5.23,35.8l36.74,5.8
					C55.35,454.72,47.18,448.08,39.11,440.01z"/>
				<path class="st12" d="M46.14,446.66l-19.33,7l35.68,5.63C57.42,456.05,51.84,451.76,46.14,446.66z"/>
				<path class="st13" d="M20.52,417.7l5.23,35.8l6.41-20.85C27.54,427.46,23.61,422.37,20.52,417.7z"/>
			</g>
		</g>
	</g>
	<g>
		<path class="st1" d="M254.28,273.34c-2.22-2.22-2.49-5.79-0.52-8.33c0.21-0.27,21.44-27.52,48.25-54.76
			c13.21-13.42,25.48-24.55,36.77-33.37c-6.15-4.72-12.68-10.41-19.52-17.26c-6.07-6.07-11.5-12.18-16.27-18.27
			c-8.7,11.17-19.63,23.32-32.77,36.42c-27.18,27.11-54.41,48.73-54.68,48.94c-2.73,2.16-6.7,1.71-8.86-1.03
			c-2.16-2.73-1.7-6.7,1.03-8.86c20.07-15.89,62.27-52.85,87.56-86.21c-6.42-9.81-11.01-19.47-13.58-28.7
			c-4.46-16.01-2.43-30.25,5.41-38.1c7.36-7.36,20.4-9.17,32.93,3.36c5.98,5.98,8.74,13.64,8.21,22.78
			c-0.65,11.24-6.51,24.89-17.48,40.82c4.59,6.15,10.31,12.82,17.41,19.92c7.57,7.57,14.68,13.6,21.21,18.38
			c15.57-10.7,29.01-16.44,40.22-17.14c9.48-0.59,17.46,2.28,23.71,8.53c12.19,12.2,10.45,24.85,3.32,31.99
			c-7.87,7.87-22.33,9.85-38.68,5.28c-7.26-2.03-16.91-5.89-28.34-13.22c-33.38,25.32-70.19,68.02-85.89,88.23
			c-2.14,2.75-6.1,3.25-8.85,1.11C254.66,273.7,254.46,273.53,254.28,273.34z M311.12,76.1c-4.46-4.46-10.76-7.69-15.09-3.36
			c-3.54,3.54-5.97,12.17-2.18,25.79c1.52,5.45,4.29,12.52,9.31,20.93c7.28-11.19,11.99-21.62,12.49-30.23
			C315.97,83.76,314.49,79.47,311.12,76.1z M404.4,169.39c-3.63-3.63-8.21-5.22-14-4.86c-8.53,0.53-18.69,5.07-29.56,12.08
			c8.19,4.77,15.12,7.46,20.51,8.97c14.03,3.92,22.97,1.34,26.36-2.05C412.74,178.51,406.45,171.44,404.4,169.39z"/>
	</g>
</g>
</svg>
