<?xml version="1.0" encoding="utf-8"?>
<!-- Generator: Adobe Illustrator 27.0.1, SVG Export Plug-In . SVG Version: 6.00 Build 0)  -->
<svg version="1.1" id="Layer_1" xmlns="http://www.w3.org/2000/svg" xmlns:xlink="http://www.w3.org/1999/xlink" x="0px" y="0px"
	 viewBox="0 0 401 160" style="enable-background:new 0 0 401 160;" xml:space="preserve">
<style type="text/css">
	.st0{fill:#FFFFFF;}
	.st1{font-family:'Nunito-BlackItalic';}
	.st2{font-size:53.7838px;}
	.st3{font-family:'Nunito-ExtraLightItalic';}
	.st4{font-size:38.4513px;}
	.st5{fill:#FFC86B;}
	.st6{fill:#243047;}
	.st7{fill:#4BEAC1;}
	.st8{fill:#44D9B6;}
	.st9{fill:#38AD8E;}
	.st10{fill:#FF595B;}
	.st11{fill:#F73E48;}
	.st12{fill:#FF494B;}
	.st13{fill:#FFDA8E;}
	.st14{fill:#FFB842;}
	.st15{fill:#E03A3C;}
	.st16{fill:#74157C;}
	.st17{fill:#C221C9;}
	.st18{fill:#310A35;}
</style>
<g>
	<text transform="matrix(1 0 0 1 159.3654 79.1736)" class="st0 st1 st2">AGENDA</text>
	<g>
		<text transform="matrix(1 0 0 1 159.3673 113.9704)" class="st0 st3 st4">INTELIGENTE</text>
	</g>
</g>
<g>
	<g>
		<g>
			<g>
				<path class="st5" d="M135.68,98.81c19.72-19.73,19.72-51.71,0-71.43c-19.72-19.73-51.7-19.73-71.43,0
					c-29.73,29.73-7.25,50.35-11.03,53.85l-7.77,7.77l28.61,28.61l7.77-7.77C87.48,104.09,104.76,129.73,135.68,98.81z"/>
			</g>
		</g>
		<g>
			<g>
				<path class="st5" d="M90.23,102.94c-0.57-0.57-0.7-1.48-0.26-2.2c0.52-0.85,1.62-1.11,2.46-0.6c4.35,2.66,11.25,3.4,18.44,1.99
					c6.71-1.32,12.34-4.29,14.35-7.58c0.52-0.85,1.62-1.11,2.46-0.6c0.85,0.52,1.11,1.62,0.6,2.46c-2.55,4.17-8.95,7.71-16.72,9.23
					c-8.17,1.6-15.82,0.71-21-2.45C90.44,103.13,90.33,103.04,90.23,102.94z"/>
			</g>
			<g>
				<path class="st5" d="M76.02,31.44c-0.58-0.58-0.7-1.51-0.24-2.24c2.64-4.11,9.13-7.5,16.93-8.84
					c8.21-1.41,15.84-0.35,20.94,2.93c0.83,0.54,1.07,1.64,0.54,2.48c-0.54,0.83-1.64,1.07-2.48,0.54
					c-4.29-2.76-11.17-3.66-18.39-2.42c-6.74,1.16-12.44,4.01-14.52,7.25c-0.54,0.83-1.64,1.07-2.48,0.54
					C76.21,31.61,76.11,31.53,76.02,31.44z"/>
			</g>
			<g>
				<path class="st5" d="M125.62,36.76c-0.18-0.18-0.32-0.4-0.42-0.65c-0.48-1.31-3.61-3.98-5.58-5.38c-0.81-0.57-1-1.69-0.43-2.5
					c0.57-0.81,1.69-1,2.5-0.43c0.97,0.68,5.84,4.24,6.87,7.07c0.34,0.93-0.14,1.96-1.07,2.3C126.83,37.43,126.1,37.24,125.62,36.76
					z"/>
			</g>
		</g>
		<g>
			<g>
				<g>
					<path class="st6" d="M72.8,118.87L44.19,90.26c-0.7-0.7-0.7-1.84,0-2.54l7.69-7.69c0.04-0.68-0.72-2.66-1.34-4.26
						c-1.72-4.47-4.33-11.22-3.61-19.73c0.85-10.07,6.25-20.15,16.05-29.94C72.86,16.23,86,10.79,99.97,10.79
						c13.97,0,27.1,5.44,36.98,15.32c9.88,9.88,15.32,23.01,15.32,36.98c0,13.97-5.44,27.11-15.32,36.98
						c-9.82,9.82-19.18,15.04-28.61,15.97c-8,0.78-14.28-1.75-18.87-3.61c-3.41-1.38-5.54-2.18-6.36-1.35l-7.78,7.78
						C74.64,119.57,73.5,119.57,72.8,118.87z M48,88.99l26.07,26.07l6.5-6.5c2.53-2.57,6.1-1.13,10.24,0.55
						c9.09,3.67,22.82,9.21,43.6-11.57c18.99-18.99,18.99-49.9,0-68.9c-18.99-18.99-49.9-18.99-68.89,0
						C44.37,49.8,50.56,65.86,53.89,74.49c1.41,3.65,2.42,6.29,0.58,8.02L48,88.99z"/>
				</g>
			</g>
		</g>
	</g>
	<g>
		<path class="st6" d="M100.41,89.41c-0.31-1.44-0.99-3.11-2.04-4.96c-1.94-3.41-5.04-7.32-8.74-11.02
			c-3.61-3.61-7.45-6.67-10.8-8.61c-1.8-1.04-3.43-1.75-4.86-2.09c-2.23-0.54-3.8-0.16-4.84,0.41c-0.38,0.17-0.74,0.42-1.05,0.73
			L60,71.94l-3.94,3.94l-0.13,0.13l-38.91,38.91c-0.97,0.97-1.27,2.35-0.9,3.57l2.31,12.61l1.31,8.96c0.11,0.78,0.48,1.48,1.01,2.02
			c0.52,0.52,1.21,0.89,1.98,1.01l1.33,0.21l9.11,1.44c0.12,0.02,0.24,0.03,0.36,0.04l10.99,2.14c1.23,0.39,2.63,0.09,3.61-0.89
			l38.85-38.85l0.06-0.06l0.13-0.13l3.37-3.37l0.57-0.57l7.72-7.72c0.07-0.06,0.15-0.13,0.24-0.22
			C100.03,94.14,101.04,92.38,100.41,89.41z"/>
		<g>
			<g>
				
					<rect x="23.67" y="90.58" transform="matrix(0.7071 -0.7071 0.7071 0.7071 -61.2302 70.1551)" class="st7" width="60.79" height="36.81"/>
				<polygon class="st8" points="32.03,130.73 32.03,130.73 41.91,133.82 81.89,93.83 69,80.93 28.64,121.29 				"/>
				
					<rect x="13.91" y="94.62" transform="matrix(0.7071 -0.7071 0.7071 0.7071 -57.1859 60.3924)" class="st9" width="60.79" height="9.2"/>
			</g>
			<g>
				
					<rect x="69.24" y="67.3" transform="matrix(-0.7071 0.7071 -0.7071 -0.7071 193.1021 91.1491)" class="st10" width="16.87" height="36.54"/>
				
					<rect x="59.39" y="71.05" transform="matrix(-0.7071 0.7071 -0.7071 -0.7071 169.4034 81.2067)" class="st11" width="16.99" height="9.27"/>
				
					<rect x="69.11" y="76.12" transform="matrix(-0.7071 0.7071 -0.7071 -0.7071 192.8774 90.931)" class="st12" width="16.99" height="18.59"/>
			</g>
			<g>
				<g>
					<path class="st13" d="M23.56,139.18l22.05,4.29l-3.22-9.29c-0.1-0.3-0.36-0.56-0.66-0.66l-9.23-3.17l-3.5-9.01
						c-0.11-0.28-0.35-0.52-0.63-0.62l-8.79-3.29L23.56,139.18z"/>
				</g>
				<path class="st14" d="M23.56,139.18l8.68-8.56c0.16-0.16,0.2-0.42,0.09-0.69l-3.5-9.03l-9.25-3.46L23.56,139.18z"/>
				<path class="st5" d="M23.56,139.18l16.58-4.88c0.64-0.19,0.4-1.19-0.34-1.44l-7.3-2.5l-2.8-7.21c-0.28-0.72-1.25-0.93-1.43-0.3
					L23.56,139.18z"/>
			</g>
			
				<ellipse transform="matrix(0.7071 -0.7071 0.7071 0.7071 -31.7898 82.3503)" class="st15" cx="83.52" cy="79.55" rx="5.06" ry="18.41"/>
			<g>
				<path class="st13" d="M67.84,95.21c7.19,7.19,14.62,11.41,16.59,9.44l0,0c0.02-0.02,0.04-0.05,0.06-0.07l0.01,0.01l3.5-3.5
					c-2.33,1.38-9.43-2.78-16.3-9.65c-7.19-7.19-11.41-14.62-9.44-16.6c0.02-0.02,0.05-0.04,0.07-0.06l-0.01-0.01l0.25-0.25
					l-0.04-0.04l-4.07,4.07l0.01,0.01c-0.02,0.02-0.05,0.04-0.07,0.06C56.43,80.59,60.65,88.02,67.84,95.21z"/>
				<path class="st5" d="M74.63,101.09l3.81-3.81c-2.15-1.58-4.46-3.57-6.75-5.85c-2.41-2.41-4.48-4.84-6.1-7.09l-3.82,3.82
					c1.62,2.24,3.68,4.65,6.07,7.05C70.14,97.51,72.47,99.5,74.63,101.09z"/>
				<path class="st14" d="M58.4,78.61c-1.32,1.33,0.14,5.1,3.41,9.6l3.82-3.82c-3.25-4.49-4.7-8.24-3.38-9.56
					c0.02-0.02,0.05-0.04,0.07-0.06l-0.01-0.01l0.25-0.25l-0.04-0.04l-4.07,4.07l0.01,0.01C58.45,78.57,58.43,78.59,58.4,78.61
					L58.4,78.61z"/>
			</g>
			<g>
				<path class="st16" d="M27.09,135.72c-2.18-2.18-3.99-4.39-5.28-6.34l1.49,10.17l10.44,1.65
					C31.7,139.9,29.38,138.01,27.09,135.72z"/>
				<path class="st17" d="M29.08,137.61l-5.49,1.99l10.14,1.6C32.29,140.27,30.7,139.06,29.08,137.61z"/>
				<path class="st18" d="M21.8,129.38l1.49,10.17l1.82-5.93C23.8,132.15,22.68,130.7,21.8,129.38z"/>
			</g>
		</g>
	</g>
	<g>
		<path class="st6" d="M88.23,88.36c-0.63-0.63-0.71-1.64-0.15-2.37c0.06-0.08,6.09-7.82,13.71-15.56
			c3.75-3.81,7.24-6.98,10.45-9.48c-1.75-1.34-3.6-2.96-5.55-4.9c-1.72-1.72-3.27-3.46-4.62-5.19c-2.47,3.17-5.58,6.63-9.31,10.35
			c-7.72,7.7-15.46,13.85-15.54,13.91c-0.78,0.61-1.9,0.49-2.52-0.29c-0.61-0.78-0.48-1.9,0.29-2.52
			c5.7-4.52,17.69-15.02,24.88-24.5c-1.83-2.79-3.13-5.53-3.86-8.16c-1.27-4.55-0.69-8.6,1.54-10.83c2.09-2.09,5.8-2.61,9.36,0.96
			c1.7,1.7,2.48,3.88,2.33,6.47c-0.19,3.19-1.85,7.07-4.97,11.6c1.31,1.75,2.93,3.64,4.95,5.66c2.15,2.15,4.17,3.86,6.03,5.22
			c4.42-3.04,8.24-4.67,11.43-4.87c2.69-0.17,4.96,0.65,6.74,2.42c3.47,3.47,2.97,7.06,0.94,9.09c-2.24,2.24-6.35,2.8-10.99,1.5
			c-2.06-0.58-4.8-1.67-8.05-3.76c-9.49,7.19-19.95,19.33-24.41,25.07c-0.61,0.78-1.73,0.92-2.52,0.32
			C88.34,88.46,88.28,88.41,88.23,88.36z M104.38,32.31c-1.27-1.27-3.06-2.18-4.29-0.96c-1.01,1.01-1.7,3.46-0.62,7.33
			c0.43,1.55,1.22,3.56,2.64,5.95c2.07-3.18,3.41-6.14,3.55-8.59C105.76,34.49,105.34,33.27,104.38,32.31z M130.89,58.82
			c-1.03-1.03-2.33-1.48-3.98-1.38c-2.42,0.15-5.31,1.44-8.4,3.43c2.33,1.36,4.3,2.12,5.83,2.55c3.99,1.11,6.53,0.38,7.49-0.58
			C133.26,61.41,131.47,59.4,130.89,58.82z"/>
	</g>
</g>
</svg>
